HIERARCHY
ROOT Hips
{
  OFFSET 0.000000 95.000000 0.000000
  CHANNELS 6 Xposition Yposition Zposition Zrotation Xrotation Yrotation
  JOINT Spine
  {
    OFFSET 0.000000 10.000000 0.000000
    CHANNELS 3 Zrotation Xrotation Yrotation
    JOINT Spine1
    {
      OFFSET 0.000000 12.000000 0.000000
      CHANNELS 3 Zrotation Xrotation Yrotation
      JOINT Spine2
      {
        OFFSET 0.000000 12.000000 0.000000
        CHANNELS 3 Zrotation Xrotation Yrotation
        JOINT Neck
        {
          OFFSET 0.000000 10.000000 0.000000
          CHANNELS 3 Zrotation Xrotation Yrotation
          JOINT Head
          {
            OFFSET 0.000000 8.000000 0.000000
            CHANNELS 3 Zrotation Xrotation Yrotation
            End Site
            {
              OFFSET 0.000000 10.000000 0.000000
            }
          }
        }
        JOINT LeftShoulder
        {
          OFFSET 6.000000 8.000000 0.000000
          CHANNELS 3 Zrotation Xrotation Yrotation
          JOINT LeftArm
          {
            OFFSET 12.000000 0.000000 0.000000
            CHANNELS 3 Zrotation Xrotation Yrotation
            JOINT LeftForeArm
            {
              OFFSET 24.000000 0.000000 0.000000
              CHANNELS 3 Zrotation Xrotation Yrotation
              JOINT LeftHand
              {
                OFFSET 22.000000 0.000000 0.000000
                CHANNELS 3 Zrotation Xrotation Yrotation
                JOINT LeftHandThumb1
                {
                  OFFSET 1.800000 -1.400000 0.500000
                  CHANNELS 3 Zrotation Xrotation Yrotation
                  JOINT LeftHandThumb2
                  {
                    OFFSET 2.400000 0.000000 0.000000
                    CHANNELS 3 Zrotation Xrotation Yrotation
                    JOINT LeftHandThumb3
                    {
                      OFFSET 1.900000 0.000000 0.000000
                      CHANNELS 3 Zrotation Xrotation Yrotation
                      End Site
                      {
                        OFFSET 1.600000 0.000000 0.000000
                      }
                    }
                  }
                }
                JOINT LeftHandIndex1
                {
                  OFFSET 6.600000 1.200000 0.300000
                  CHANNELS 3 Zrotation Xrotation Yrotation
                  JOINT LeftHandIndex2
                  {
                    OFFSET 2.000000 0.000000 0.000000
                    CHANNELS 3 Zrotation Xrotation Yrotation
                    JOINT LeftHandIndex3
                    {
                      OFFSET 1.200000 0.000000 0.000000
                      CHANNELS 3 Zrotation Xrotation Yrotation
                      End Site
                      {
                        OFFSET 1.000000 0.000000 0.000000
                      }
                    }
                  }
                }
                JOINT LeftHandMiddle1
                {
                  OFFSET 7.200000 0.000000 0.300000
                  CHANNELS 3 Zrotation Xrotation Yrotation
                  JOINT LeftHandMiddle2
                  {
                    OFFSET 3.000000 0.000000 0.000000
                    CHANNELS 3 Zrotation Xrotation Yrotation
                    JOINT LeftHandMiddle3
                    {
                      OFFSET 2.000000 0.000000 0.000000
                      CHANNELS 3 Zrotation Xrotation Yrotation
                      End Site
                      {
                        OFFSET 1.600000 0.000000 0.000000
                      }
                    }
                  }
                }
                JOINT LeftHandRing1
                {
                  OFFSET 7.100000 -1.000000 0.400000
                  CHANNELS 3 Zrotation Xrotation Yrotation
                  JOINT LeftHandRing2
                  {
                    OFFSET 2.600000 0.000000 0.000000
                    CHANNELS 3 Zrotation Xrotation Yrotation
                    JOINT LeftHandRing3
                    {
                      OFFSET 1.600000 0.000000 0.000000
                      CHANNELS 3 Zrotation Xrotation Yrotation
                      End Site
                      {
                        OFFSET 1.300000 0.000000 0.000000
                      }
                    }
                  }
                }
                JOINT LeftHandPinky1
                {
                  OFFSET 6.500000 -2.000000 0.500000
                  CHANNELS 3 Zrotation Xrotation Yrotation
                  JOINT LeftHandPinky2
                  {
                    OFFSET 1.900000 0.000000 0.000000
                    CHANNELS 3 Zrotation Xrotation Yrotation
                    JOINT LeftHandPinky3
                    {
                      OFFSET 1.400000 0.000000 0.000000
                      CHANNELS 3 Zrotation Xrotation Yrotation
                      End Site
                      {
                        OFFSET 1.300000 0.000000 0.000000
                      }
                    }
                  }
                }
              }
            }
          }
        }
        JOINT RightShoulder
        {
          OFFSET -6.000000 8.000000 0.000000
          CHANNELS 3 Zrotation Xrotation Yrotation
          JOINT RightArm
          {
            OFFSET -12.000000 0.000000 0.000000
            CHANNELS 3 Zrotation Xrotation Yrotation
            JOINT RightForeArm
            {
              OFFSET -24.000000 0.000000 0.000000
              CHANNELS 3 Zrotation Xrotation Yrotation
              JOINT RightHand
              {
                OFFSET -22.000000 0.000000 0.000000
                CHANNELS 3 Zrotation Xrotation Yrotation
                JOINT RightHandThumb1
                {
                  OFFSET -1.800000 -1.400000 0.500000
                  CHANNELS 3 Zrotation Xrotation Yrotation
                  JOINT RightHandThumb2
                  {
                    OFFSET -2.400000 0.000000 0.000000
                    CHANNELS 3 Zrotation Xrotation Yrotation
                    JOINT RightHandThumb3
                    {
                      OFFSET -1.900000 0.000000 0.000000
                      CHANNELS 3 Zrotation Xrotation Yrotation
                      End Site
                      {
                        OFFSET -1.600000 0.000000 0.000000
                      }
                    }
                  }
                }
                JOINT RightHandIndex1
                {
                  OFFSET -6.600000 1.200000 0.300000
                  CHANNELS 3 Zrotation Xrotation Yrotation
                  JOINT RightHandIndex2
                  {
                    OFFSET -2.000000 0.000000 0.000000
                    CHANNELS 3 Zrotation Xrotation Yrotation
                    JOINT RightHandIndex3
                    {
                      OFFSET -1.200000 0.000000 0.000000
                      CHANNELS 3 Zrotation Xrotation Yrotation
                      End Site
                      {
                        OFFSET -1.000000 0.000000 0.000000
                      }
                    }
                  }
                }
                JOINT RightHandMiddle1
                {
                  OFFSET -7.200000 0.000000 0.300000
                  CHANNELS 3 Zrotation Xrotation Yrotation
                  JOINT RightHandMiddle2
                  {
                    OFFSET -3.000000 0.000000 0.000000
                    CHANNELS 3 Zrotation Xrotation Yrotation
                    JOINT RightHandMiddle3
                    {
                      OFFSET -2.000000 0.000000 0.000000
                      CHANNELS 3 Zrotation Xrotation Yrotation
                      End Site
                      {
                        OFFSET -1.600000 0.000000 0.000000
                      }
                    }
                  }
                }
                JOINT RightHandRing1
                {
                  OFFSET -7.100000 -1.000000 0.400000
                  CHANNELS 3 Zrotation Xrotation Yrotation
                  JOINT RightHandRing2
                  {
                    OFFSET -2.600000 0.000000 0.000000
                    CHANNELS 3 Zrotation Xrotation Yrotation
                    JOINT RightHandRing3
                    {
                      OFFSET -1.600000 0.000000 0.000000
                      CHANNELS 3 Zrotation Xrotation Yrotation
                      End Site
                      {
                        OFFSET -1.300000 0.000000 0.000000
                      }
                    }
                  }
                }
                JOINT RightHandPinky1
                {
                  OFFSET -6.500000 -2.000000 0.500000
                  CHANNELS 3 Zrotation Xrotation Yrotation
                  JOINT RightHandPinky2
                  {
                    OFFSET -1.900000 0.000000 0.000000
                    CHANNELS 3 Zrotation Xrotation Yrotation
                    JOINT RightHandPinky3
                    {
                      OFFSET -1.400000 0.000000 0.000000
                      CHANNELS 3 Zrotation Xrotation Yrotation
                      End Site
                      {
                        OFFSET -1.300000 0.000000 0.000000
                      }
                    }
                  }
                }
              }
            }
          }
        }
      }
    }
  }
  JOINT LeftUpLeg
  {
    OFFSET 10.000000 -5.000000 0.000000
    CHANNELS 3 Zrotation Xrotation Yrotation
    JOINT LeftLeg
    {
      OFFSET 0.000000 -42.000000 0.000000
      CHANNELS 3 Zrotation Xrotation Yrotation
      JOINT LeftFoot
      {
        OFFSET 0.000000 -42.000000 4.000000
        CHANNELS 3 Zrotation Xrotation Yrotation
        End Site
        {
          OFFSET 0.000000 0.000000 12.000000
        }
      }
    }
  }
  JOINT RightUpLeg
  {
    OFFSET -10.000000 -5.000000 0.000000
    CHANNELS 3 Zrotation Xrotation Yrotation
    JOINT RightLeg
    {
      OFFSET 0.000000 -42.000000 0.000000
      CHANNELS 3 Zrotation Xrotation Yrotation
      JOINT RightFoot
      {
        OFFSET 0.000000 -42.000000 4.000000
        CHANNELS 3 Zrotation Xrotation Yrotation
        End Site
        {
          OFFSET 0.000000 0.000000 12.000000
        }
      }
    }
  }
}
MOTION
Frames: 9
Frame Time: 0.033333
0.0000 95.0000 0.0000 0.0000 0.0000 0.0000 0.0000 0.0000 0.0000 0.0000 0.0000 0.0000 0.0000 0.0000 0.0000 0.0000 0.0000 0.0000 0.0000 0.0000 0.0000 0.0000 0.0000 0.0000 -72.5209 13.1591 17.8728 0.2374 -2.8050 3.5618 12.6450 -14.3084 -180.6731 42.1846 -9.2899 0.4716 17.4766 0.0000 0.0000 11.7572 0.0000 0.0000 -17.3818 0.9879 -7.6601 6.8946 0.0000 0.0000 4.8566 0.0000 0.0000 4.9118 0.0755 -6.5328 4.2664 0.0000 0.0000 2.8339 0.0000 0.0000 5.8621 -0.5873 -2.9201 5.4019 0.0000 0.0000 5.1999 0.0000 0.0000 0.3677 -0.6823 -2.1531 4.8703 0.0000 0.0000 4.5995 0.0000 0.0000 0.0000 0.0000 0.0000 73.0163 -20.7110 27.7351 216.7072 59.9382 306.8755 -118.5332 -49.4320 102.1142 -66.4183 -13.5263 -3.6387 3.3133 0.0000 0.0000 8.1761 0.0000 0.0000 -4.7931 -1.6488 -6.3165 1.9509 0.0000 0.0000 8.8798 0.0000 0.0000 4.6798 -0.1880 9.3699 2.6560 0.0000 0.0000 1.4768 0.0000 0.0000 -6.5119 -1.0711 8.5237 0.5902 0.0000 0.0000 2.6798 0.0000 0.0000 -18.2876 -2.6921 9.6863 6.0080 0.0000 0.0000 1.7533 0.0000 0.0000 0.0000 0.0000 0.0000 0.0000 0.0000 0.0000 0.0000 0.0000 0.0000 0.0000 0.0000 0.0000 0.0000 0.0000 0.0000 0.0000 0.0000 0.0000
0.0000 95.0000 0.0000 0.0000 0.0000 0.0000 0.0000 0.0000 0.0000 0.0000 0.0000 0.0000 0.0000 0.0000 0.0000 0.0000 0.0000 0.0000 0.0000 0.0000 0.0000 0.0000 0.0000 0.0000 -71.7040 13.7991 19.0128 -0.3143 -1.9689 2.7185 18.0497 -23.7145 -185.9204 33.0057 -6.3363 3.4875 17.0985 0.0000 0.0000 9.3318 0.0000 0.0000 -33.0445 1.2705 -1.7866 15.5350 0.0000 0.0000 11.8950 0.0000 0.0000 1.7576 0.0288 -6.6488 4.3349 0.0000 0.0000 4.7847 0.0000 0.0000 12.2911 -0.8680 -5.6784 7.5496 0.0000 0.0000 2.9002 0.0000 0.0000 10.0351 -1.3500 -2.7971 2.5086 0.0000 0.0000 2.3254 0.0000 0.0000 0.0000 0.0000 0.0000 73.7078 -21.3424 28.2221 216.1303 60.9815 305.0009 -119.9562 -48.2069 103.2294 -65.4674 -13.4378 -2.0770 2.3294 0.0000 0.0000 7.0474 0.0000 0.0000 -6.9152 -1.6171 -5.2858 2.0945 0.0000 0.0000 8.7895 0.0000 0.0000 4.1239 -0.1501 8.9384 3.3371 0.0000 0.0000 1.7920 0.0000 0.0000 -6.0362 -1.0781 8.4983 0.7849 0.0000 0.0000 2.9519 0.0000 0.0000 -17.6276 -2.7487 10.0120 6.2737 0.0000 0.0000 1.7204 0.0000 0.0000 0.0000 0.0000 0.0000 0.0000 0.0000 0.0000 0.0000 0.0000 0.0000 0.0000 0.0000 0.0000 0.0000 0.0000 0.0000 0.0000 0.0000 0.0000
0.0000 95.0000 0.0000 0.0000 0.0000 0.0000 0.0000 0.0000 0.0000 0.0000 0.0000 0.0000 0.0000 0.0000 0.0000 0.0000 0.0000 0.0000 0.0000 0.0000 0.0000 0.0000 0.0000 0.0000 -71.7456 13.8091 19.0122 0.1701 -2.2981 2.9577 2.8170 -11.8362 -175.4621 53.2305 -12.4026 -5.4873 14.3244 0.0000 0.0000 9.0759 0.0000 0.0000 -25.7503 0.6734 -10.3745 13.1920 0.0000 0.0000 3.3555 0.0000 0.0000 7.1357 0.5082 -12.9092 4.7526 0.0000 0.0000 2.0573 0.0000 0.0000 13.1916 -1.0609 -13.3713 4.7516 0.0000 0.0000 0.8078 0.0000 0.0000 1.1201 -3.6593 -12.0899 5.8336 0.0000 0.0000 1.3592 0.0000 0.0000 0.0000 0.0000 0.0000 75.5215 -21.4944 27.5372 215.9924 58.5873 305.0570 -127.0667 -44.9951 113.2155 -63.2979 -13.2666 0.7351 0.5086 0.0000 0.0000 5.1274 0.0000 0.0000 -10.3006 -1.2233 -2.6931 2.2740 0.0000 0.0000 8.9283 0.0000 0.0000 3.2874 -0.1035 8.3788 4.6917 0.0000 0.0000 2.4663 0.0000 0.0000 -4.9444 -1.0913 8.4186 1.1961 0.0000 0.0000 3.4736 0.0000 0.0000 -16.1387 -2.8570 10.5343 6.8739 0.0000 0.0000 1.7912 0.0000 0.0000 0.0000 0.0000 0.0000 0.0000 0.0000 0.0000 0.0000 0.0000 0.0000 0.0000 0.0000 0.0000 0.0000 0.0000 0.0000 0.0000 0.0000 0.0000
0.0000 95.0000 0.0000 0.0000 0.0000 0.0000 0.0000 0.0000 0.0000 0.0000 0.0000 0.0000 0.0000 0.0000 0.0000 0.0000 0.0000 0.0000 0.0000 0.0000 0.0000 0.0000 0.0000 0.0000 -71.1212 14.3548 19.9805 -0.0461 -1.7519 2.3447 3.5012 -8.3843 -171.5455 50.8709 -12.2597 -6.3103 13.7346 0.0000 0.0000 9.8871 0.0000 0.0000 -0.0765 1.7526 -9.6717 4.1939 0.0000 0.0000 2.6980 0.0000 0.0000 12.7525 0.5889 -10.0383 3.6479 0.0000 0.0000 0.7782 0.0000 0.0000 4.2264 -1.2085 -9.4284 3.7796 0.0000 0.0000 3.3852 0.0000 0.0000 -6.1130 -2.3583 -7.7502 5.1278 0.0000 0.0000 7.5575 0.0000 0.0000 0.0000 0.0000 0.0000 75.8946 -22.0639 28.0735 215.8630 58.4585 304.0891 -129.5550 -43.4565 116.0147 -62.0956 -13.1843 1.9568 0.6411 0.0000 0.0000 4.3346 0.0000 0.0000 -11.5801 -0.8880 -1.2113 2.3265 0.0000 0.0000 9.0914 0.0000 0.0000 2.9977 -0.0903 8.2230 5.2926 0.0000 0.0000 2.8076 0.0000 0.0000 -4.3433 -1.0954 8.3499 1.3962 0.0000 0.0000 3.7238 0.0000 0.0000 -15.3263 -2.9058 10.7209 7.2078 0.0000 0.0000 1.8950 0.0000 0.0000 0.0000 0.0000 0.0000 0.0000 0.0000 0.0000 0.0000 0.0000 0.0000 0.0000 0.0000 0.0000 0.0000 0.0000 0.0000 0.0000 0.0000 0.0000
0.0000 95.0000 0.0000 0.0000 0.0000 0.0000 0.0000 0.0000 0.0000 0.0000 0.0000 0.0000 0.0000 0.0000 0.0000 0.0000 0.0000 0.0000 0.0000 0.0000 0.0000 0.0000 0.0000 0.0000 -70.7332 14.7431 20.6598 -0.2203 -1.4053 1.9652 3.7999 -9.1222 -172.2070 51.3393 -12.2594 -6.0100 13.7067 0.0000 0.0000 9.9727 0.0000 0.0000 -3.1974 1.6253 -9.6877 4.2013 0.0000 0.0000 2.6508 0.0000 0.0000 12.3670 0.6204 -10.4934 3.7781 0.0000 0.0000 0.5516 0.0000 0.0000 7.2028 -1.1847 -10.1766 2.8980 0.0000 0.0000 2.6713 0.0000 0.0000 -3.5288 -2.7390 -8.8493 4.7614 0.0000 0.0000 6.4819 0.0000 0.0000 0.0000 0.0000 0.0000 76.1845 -22.1791 28.0770 212.7501 59.3150 301.2502 -132.5892 -42.4415 117.8757 -60.8305 -13.1031 3.0411 1.4965 0.0000 0.0000 3.6550 0.0000 0.0000 -12.5984 -0.4833 0.3467 2.3630 0.0000 0.0000 9.2861 0.0000 0.0000 2.7866 -0.0818 8.1321 5.8332 0.0000 0.0000 3.1461 0.0000 0.0000 -3.7162 -1.0964 8.2554 1.5906 0.0000 0.0000 3.9673 0.0000 0.0000 -14.4813 -2.9489 10.8536 7.5644 0.0000 0.0000 2.0397 0.0000 0.0000 0.0000 0.0000 0.0000 0.0000 0.0000 0.0000 0.0000 0.0000 0.0000 0.0000 0.0000 0.0000 0.0000 0.0000 0.0000 0.0000 0.0000 0.0000
0.0000 95.0000 0.0000 0.0000 0.0000 0.0000 0.0000 0.0000 0.0000 0.0000 0.0000 0.0000 0.0000 0.0000 0.0000 0.0000 0.0000 0.0000 0.0000 0.0000 0.0000 0.0000 0.0000 0.0000 -70.1446 15.0883 21.3645 -0.8999 -0.6384 1.2265 3.8334 -9.4770 -172.4500 51.8275 -12.2682 -5.7325 13.6747 0.0000 0.0000 10.0623 0.0000 0.0000 -6.7915 1.4738 -9.6634 4.2131 0.0000 0.0000 2.7118 0.0000 0.0000 11.9607 0.6464 -10.9361 3.9308 0.0000 0.0000 0.7133 0.0000 0.0000 9.8254 -1.1321 -10.8435 3.3113 0.0000 0.0000 2.3237 0.0000 0.0000 -1.0716 -3.0521 -9.9006 4.4957 0.0000 0.0000 5.4694 0.0000 0.0000 0.0000 0.0000 0.0000 76.0803 -22.3470 28.3372 211.7727 59.3254 300.3012 -135.9553 -47.4405 115.2766 -52.1650 -11.5932 1.8464 5.2075 0.0000 0.0000 6.0942 0.0000 0.0000 -3.9356 0.7696 4.3698 7.3270 0.0000 0.0000 8.2544 0.0000 0.0000 7.8350 -0.5306 12.5088 5.2499 0.0000 0.0000 2.2230 0.0000 0.0000 -3.2465 -1.6053 12.7372 3.5413 0.0000 0.0000 2.5622 0.0000 0.0000 -18.4097 -3.3021 14.1461 4.7568 0.0000 0.0000 1.4928 0.0000 0.0000 0.0000 0.0000 0.0000 0.0000 0.0000 0.0000 0.0000 0.0000 0.0000 0.0000 0.0000 0.0000 0.0000 0.0000 0.0000 0.0000 0.0000 0.0000
0.0000 95.0000 0.0000 0.0000 0.0000 0.0000 0.0000 0.0000 0.0000 0.0000 0.0000 0.0000 0.0000 0.0000 0.0000 0.0000 0.0000 0.0000 0.0000 0.0000 0.0000 0.0000 0.0000 0.0000 -70.1743 15.3165 21.6721 -0.5198 -0.5003 0.8848 4.6938 -10.9842 -173.4644 52.8598 -12.3161 -5.2676 13.5969 0.0000 0.0000 10.2545 0.0000 0.0000 -15.8265 1.0947 -9.3781 4.2602 0.0000 0.0000 4.0674 0.0000 0.0000 11.0751 0.6810 -11.7878 4.2888 0.0000 0.0000 1.4703 0.0000 0.0000 14.1241 -0.9809 -11.9867 4.6983 0.0000 0.0000 2.0635 0.0000 0.0000 3.3957 -3.5024 -11.8336 4.2932 0.0000 0.0000 3.6896 0.0000 0.0000 0.0000 0.0000 0.0000 76.5022 -22.7328 28.6100 212.8733 59.1496 300.5189 -29.8628 29.6190 -50.3425 -55.0108 -8.2807 -20.5362 5.0869 0.0000 0.0000 4.4805 0.0000 0.0000 20.4770 0.8986 -15.0381 4.2041 0.0000 0.0000 7.0987 0.0000 0.0000 -12.6210 -2.0425 -13.5425 3.4766 0.0000 0.0000 1.4625 0.0000 0.0000 -18.4907 -1.3671 -15.2900 2.7052 0.0000 0.0000 1.1902 0.0000 0.0000 -7.1680 4.7242 -21.3819 1.9207 0.0000 0.0000 1.0485 0.0000 0.0000 0.0000 0.0000 0.0000 0.0000 0.0000 0.0000 0.0000 0.0000 0.0000 0.0000 0.0000 0.0000 0.0000 0.0000 0.0000 0.0000 0.0000 0.0000
0.0000 95.0000 0.0000 0.0000 0.0000 0.0000 0.0000 0.0000 0.0000 0.0000 0.0000 0.0000 0.0000 0.0000 0.0000 0.0000 0.0000 0.0000 0.0000 0.0000 0.0000 0.0000 0.0000 0.0000 -70.2688 15.2805 21.5850 -0.1076 -0.8997 1.2520 5.3197 -12.1681 -174.3598 53.4000 -12.3567 -5.0954 13.5504 0.0000 0.0000 10.3572 0.0000 0.0000 -21.5197 0.8819 -9.0197 4.3136 0.0000 0.0000 5.8008 0.0000 0.0000 10.5878 0.6892 -12.1991 4.4876 0.0000 0.0000 1.8702 0.0000 0.0000 15.8538 -0.8959 -12.4908 5.1982 0.0000 0.0000 1.9908 0.0000 0.0000 5.3800 -3.6554 -12.7077 4.3406 0.0000 0.0000 2.9477 0.0000 0.0000 0.0000 0.0000 0.0000 77.0886 -22.8021 28.4079 211.4822 58.1719 299.6167 -139.7653 -46.5811 123.5436 -62.0077 -13.5817 6.2188 6.2379 0.0000 0.0000 2.9220 0.0000 0.0000 -12.0833 -0.1905 1.2666 6.3903 0.0000 0.0000 8.9937 0.0000 0.0000 3.6009 -0.2336 12.1923 5.0559 0.0000 0.0000 2.4416 0.0000 0.0000 -0.3261 -1.8105 13.0210 3.8030 0.0000 0.0000 3.5426 0.0000 0.0000 -14.3683 -3.9019 16.3319 11.1034 0.0000 0.0000 1.3485 0.0000 0.0000 0.0000 0.0000 0.0000 0.0000 0.0000 0.0000 0.0000 0.0000 0.0000 0.0000 0.0000 0.0000 0.0000 0.0000 0.0000 0.0000 0.0000 0.0000
0.0000 95.0000 0.0000 0.0000 0.0000 0.0000 0.0000 0.0000 0.0000 0.0000 0.0000 0.0000 0.0000 0.0000 0.0000 0.0000 0.0000 0.0000 0.0000 0.0000 0.0000 0.0000 0.0000 0.0000 -69.7788 15.3070 21.8148 -0.6873 -0.4351 0.8713 5.5036 -12.8133 -174.6001 53.9514 -12.4094 -4.9778 13.4983 0.0000 0.0000 10.4646 0.0000 0.0000 -28.1660 0.6909 -8.4138 4.4223 0.0000 0.0000 8.3955 0.0000 0.0000 10.0624 0.6905 -12.6031 4.6961 0.0000 0.0000 2.2610 0.0000 0.0000 17.3329 -0.8106 -12.9699 5.5643 0.0000 0.0000 1.9230 0.0000 0.0000 7.1829 -3.7711 -13.5183 4.4625 0.0000 0.0000 2.3267 0.0000 0.0000 0.0000 0.0000 0.0000 76.8570 -22.9272 28.6753 211.3495 57.7373 299.5651 -144.0884 -45.5041 128.1110 -47.6510 -11.6183 5.2129 5.5131 0.0000 0.0000 3.4509 0.0000 0.0000 -11.6860 0.9545 5.1760 6.7531 0.0000 0.0000 9.1864 0.0000 0.0000 6.6856 -0.5108 13.5005 5.7823 0.0000 0.0000 1.8166 0.0000 0.0000 -0.0107 -2.0936 14.8969 3.9964 0.0000 0.0000 3.0224 0.0000 0.0000 -16.6285 -4.1696 19.1630 9.4837 0.0000 0.0000 1.0666 0.0000 0.0000 0.0000 0.0000 0.0000 0.0000 0.0000 0.0000 0.0000 0.0000 0.0000 0.0000 0.0000 0.0000 0.0000 0.0000 0.0000 0.0000 0.0000 0.0000
